<?xml version="1.0" encoding="UTF-8"?>
<!DOCTYPE svg PUBLIC "-//W3C//DTD SVG 1.1//EN" "http://www.w3.org/Graphics/SVG/1.1/DTD/svg11.dtd">
<svg xmlns="http://www.w3.org/2000/svg" version="1.1" width="1373px" height="895px" style="shape-rendering:geometricPrecision; text-rendering:geometricPrecision; image-rendering:optimizeQuality; fill-rule:evenodd; clip-rule:evenodd" xmlns:xlink="http://www.w3.org/1999/xlink">
<g><path style="opacity:1" fill="#c5050c" d="M 103.5,43.5 C 227.486,53.6099 351.486,63.6099 475.5,73.5C 509.037,68.1138 542.704,63.6138 576.5,60C 645.833,52.7058 715.166,52.7058 784.5,60C 818.139,63.5676 851.639,68.0676 885,73.5C 1008.34,63.5552 1131.67,53.5552 1255,43.5C 1285.93,45.2866 1304.6,61.2866 1311,91.5C 1318.94,187.171 1326.94,282.838 1335,378.5C 1362.85,463.383 1353.18,543.717 1306,619.5C 1273.25,668.913 1232.42,710.413 1183.5,744C 1099.44,799.82 1007.77,838.153 908.5,859C 751.942,892.481 595.608,891.481 439.5,856C 345.101,834.555 257.768,797.222 177.5,744C 122.583,706.755 78.4168,659.588 45,602.5C 6.40651,530.566 0.073176,455.899 26,378.5C 34.0028,281.132 42.3362,183.799 51,86.5C 59.0861,60.5733 76.5861,46.2399 103.5,43.5 Z M 101.5,83.5 C 264.924,166.714 403.424,280.714 517,425.5C 517.617,426.449 517.451,427.282 516.5,428C 461.466,450.71 417.633,486.877 385,536.5C 348.527,600.095 347.193,664.428 381,729.5C 403.785,767.952 434.285,798.785 472.5,822C 384.642,805.049 302.309,773.716 225.5,728C 179.838,700.016 140.005,665.183 106,623.5C 70.4751,578.438 51.6418,527.104 49.5,469.5C 49.9787,441.274 55.1453,413.94 65,387.5C 73.1103,291.509 81.1103,195.509 89,99.5C 90.088,91.5972 94.2547,86.2639 101.5,83.5 Z M 1257.5,83.5 C 1266.65,84.8235 1271.49,90.1569 1272,99.5C 1280,195.5 1288,291.5 1296,387.5C 1321.35,458.938 1314.68,527.271 1276,592.5C 1254.27,627.574 1227.44,658.407 1195.5,685C 1143.13,727.205 1085.13,760.205 1021.5,784C 978.198,800.549 933.864,813.215 888.5,822C 926.715,798.785 957.215,767.952 980,729.5C 1019.01,650.641 1011.01,576.975 956,508.5C 934.089,483.576 908.923,462.743 880.5,446C 868.101,439.469 855.767,432.969 843.5,426.5C 956.893,281.894 1094.89,167.56 1257.5,83.5 Z M 199.5,92.5 C 200.449,91.8476 201.615,91.5143 203,91.5C 290.582,98.6456 378.082,106.146 465.5,114C 501.963,211.764 538.296,309.597 574.5,407.5C 568.674,409.957 562.674,411.457 556.5,412C 457.795,282.09 338.795,175.59 199.5,92.5 Z M 1154.5,91.5 C 1156.86,91.3367 1159.19,91.5034 1161.5,92C 1022.31,175.495 903.305,282.162 804.5,412C 798.326,411.457 792.326,409.957 786.5,407.5C 822.704,309.597 859.037,211.764 895.5,114C 981.913,106.264 1068.25,98.7641 1154.5,91.5 Z M 639.5,95.5 C 711.668,93.1001 783.335,97.9334 854.5,110C 818.543,206.034 782.877,302.201 747.5,398.5C 746.333,398.833 745.167,399.167 744,399.5C 701.667,392.833 659.333,392.833 617,399.5C 615.833,399.167 614.667,398.833 613.5,398.5C 578.123,302.201 542.457,206.034 506.5,110C 550.696,102.515 595.029,97.6818 639.5,95.5 Z M 672.5,434.5 C 736.755,433.565 797.422,447.731 854.5,477C 891.845,496.76 921.678,524.594 944,560.5C 977.016,624.399 970.683,684.065 925,739.5C 890.176,777.517 848.009,804.35 798.5,820C 718.727,844.912 639.061,844.579 559.5,819C 511.098,803.403 469.931,776.903 436,739.5C 389.203,681.818 383.87,620.484 420,555.5C 440.404,524.094 466.904,499.26 499.5,481C 553.43,451.296 611.097,435.796 672.5,434.5 Z M 638.5,511.5 C 666.5,511.5 694.5,511.5 722.5,511.5C 717.841,523.208 709.508,531.375 697.5,536C 672.521,543.454 653.021,536.287 639,514.5C 638.517,513.552 638.351,512.552 638.5,511.5 Z M 534.5,646.5 C 631.833,646.5 729.167,646.5 826.5,646.5C 819.467,693.42 795.8,729.253 755.5,754C 705.5,781.333 655.5,781.333 605.5,754C 565.2,729.253 541.533,693.42 534.5,646.5 Z"/></g>
<g><path style="opacity:1" fill="#c5050c" d="M 380.5,401.5 C 397.491,400.658 405.658,408.658 405,425.5C 398.734,440.591 388.234,444.424 373.5,437C 364.914,428.407 363.748,418.907 370,408.5C 373.154,405.488 376.654,403.155 380.5,401.5 Z"/></g>
<g><path style="opacity:1" fill="#c5050c" d="M 970.5,401.5 C 990.504,401.519 998.004,411.186 993,430.5C 985.67,440.806 976.17,443.306 964.5,438C 952.938,427.298 952.605,416.298 963.5,405C 965.925,403.787 968.259,402.621 970.5,401.5 Z"/></g>
<g><path style="opacity:1" fill="#c5050c" d="M 607.5,472.5 C 656.168,472.333 704.834,472.5 753.5,473C 763.143,476.604 767.809,483.604 767.5,494C 763.039,541.46 737.372,569.46 690.5,578C 649.42,580.719 619.587,563.886 601,527.5C 595.575,515.044 593.242,502.044 594,488.5C 595.849,480.826 600.349,475.492 607.5,472.5 Z M 638.5,511.5 C 638.351,512.552 638.517,513.552 639,514.5C 653.021,536.287 672.521,543.454 697.5,536C 709.508,531.375 717.841,523.208 722.5,511.5C 694.5,511.5 666.5,511.5 638.5,511.5 Z"/></g>
<g><path style="opacity:1" fill="#c5050c" d="M 508.5,606.5 C 623.167,606.333 737.834,606.5 852.5,607C 858.457,608.623 862.957,612.123 866,617.5C 869.247,666.424 855.247,709.758 824,747.5C 769.942,806.146 704.109,825.646 626.5,806C 571.64,788.142 532.14,752.976 508,700.5C 497.147,674.901 492.48,648.234 494,620.5C 496.749,613.583 501.582,608.917 508.5,606.5 Z M 534.5,646.5 C 541.533,693.42 565.2,729.253 605.5,754C 655.5,781.333 705.5,781.333 755.5,754C 795.8,729.253 819.467,693.42 826.5,646.5C 729.167,646.5 631.833,646.5 534.5,646.5 Z"/></g>
</svg>
